<svg height="511pt" fill='#fff' viewBox="-94 0 511 511.99871" width="511pt" xmlns="http://www.w3.org/2000/svg"><path d="m310.867188 1.957031c-10.171876-4.804687-22.316407-.457031-27.121094 9.714844l-33.296875 70.484375-63.394531 43.820312c-15.816407 0-116.910157 0-132.007813 0l28.804687-53.320312c5.347657-9.898438 1.660157-22.257812-8.238281-27.605469-9.898437-5.347656-22.253906-1.65625-27.601562 8.242188l-45.042969 83.371093c-7.308594 13.527344 2.476562 30.054688 17.921875 30.054688h75.632813v123.234375l-59.472657 190.300781c-4.027343 12.886719 3.15625 26.597656 16.039063 30.625 12.933594 4.039063 26.613281-3.203125 30.625-16.039062l57.644531-184.453125h18.226563l57.640624 184.453125c4.023438 12.867187 17.722657 20.070312 30.625 16.039062 12.882813-4.027344 20.066407-17.738281 16.039063-30.625l-59.472656-190.300781v-126.484375c.191406-.121094.386719-.234375.574219-.363281l73.121093-50.546875c2.945313-2.039063 5.304688-4.816406 6.835938-8.054688l35.632812-75.429687c4.808594-10.171875.457031-22.3125-9.714843-27.117188zm0 0"/><path d="m192.6875 70.304688c0 23.316406-18.898438 42.21875-42.214844 42.21875s-42.21875-18.902344-42.21875-42.21875c0-23.316407 18.902344-42.21875 42.21875-42.21875s42.214844 18.902343 42.214844 42.21875zm0 0"/></svg>